<?xml version="1.0" encoding="UTF-8"?>
<svg width="26px" height="25px" viewBox="0 0 26 25" version="1.1" xmlns="http://www.w3.org/2000/svg" xmlns:xlink="http://www.w3.org/1999/xlink">
    <!-- Generator: Sketch 42 (36781) - http://www.bohemiancoding.com/sketch -->
    <title>Shape</title>
    <desc>Created with Sketch.</desc>
    <defs></defs>
    <g id="Page-1" stroke="none" stroke-width="1" fill="none" fill-rule="evenodd">
        <g id="signature" fill-rule="nonzero" fill="#000000">
            <path d="M21.1436779,24.9882107 C19.8709052,24.8415613 18.2090754,24.3339289 16.9752084,23.7134893 C15.8691745,23.1494533 14.4685687,22.1059867 13.3625348,21.0061164 C13.0901948,20.7353791 12.8456445,20.5097647 12.8234127,20.5097647 C12.8067388,20.5097647 12.7567172,20.6056509 12.7178115,20.7184581 C12.6844637,20.8312653 12.5399568,21.0455989 12.4065658,21.1978887 C11.8618857,21.7844861 11.000402,21.8803722 9.55533258,21.5193892 C8.03800966,21.1358447 5.19233445,19.6185878 3.68612745,18.3889893 C2.76350619,17.6388214 1.69082003,16.4148633 1.02942286,15.3601159 C-0.210002086,13.3972706 -0.332277192,11.4851885 0.673713459,9.91716839 C1.0238649,9.37569381 1.70193595,8.69321023 2.24105801,8.33222718 C3.063636,7.79075261 4.26971319,7.26619912 5.1311969,7.08570759 C5.30349364,7.05186543 5.44244262,6.99546183 5.44244262,6.96726003 C5.44244262,6.93905823 5.35351527,6.79804923 5.24235609,6.65139986 C4.50870544,5.67561756 4.49758953,4.60958949 5.20900833,3.85378123 C5.59806549,3.44203494 6.2539047,3.13745549 7.07648269,2.99080613 C7.99910395,2.82159532 10.2611934,2.87799893 12.1953633,3.11489405 C12.5566307,3.15437657 12.8734343,3.17693801 12.8956662,3.14873621 C12.917898,3.12617477 12.9623617,2.85543749 12.9957094,2.54521768 C13.0846368,1.79504978 13.2458176,1.1125662 13.4125564,0.774144592 C13.5848531,0.441363344 13.9461205,0.108582095 14.2406924,0.0296170535 C14.7075609,-0.0944708697 15.2633569,0.181906777 15.5079071,0.66133739 C15.6468561,0.943355397 15.6913198,1.52431249 15.6301822,2.33652435 L15.5857185,2.97388505 L15.7135516,3.00772721 C15.7858051,3.02464829 16.0136814,3.01900793 16.2137679,2.99644649 C17.0641357,2.88927965 19.8431154,2.8385164 20.4767228,2.91748145 C22.3108494,3.14873621 23.6336437,3.93838663 24.2005556,5.13978334 C24.4617797,5.698179 24.5340332,6.05916205 24.5229172,6.77548779 C24.5118013,7.58205929 24.3728523,8.1178935 23.9782372,8.91882464 C23.5725062,9.73667686 23.0778478,10.4022394 22.22748,11.2595741 C21.5938726,11.9025752 20.999171,12.3650847 20.1043395,12.91784 C20.0154122,12.9686032 19.9487167,13.0306472 19.9487167,13.058849 C19.9487167,13.0870508 20.182151,13.2844634 20.4656069,13.4931567 C21.5105032,14.2658861 21.9718139,14.6663516 22.9388988,15.6252129 C24.6174026,17.2891191 25.6622989,19.0714729 25.923523,20.701537 C26.0847038,21.6942404 25.9957765,22.3710836 25.6122773,23.1494533 C25.2065462,23.9673055 24.5006854,24.5200608 23.4780209,24.8246402 C23.0611739,24.9487282 22.8444135,24.97693 22.1719004,24.993851 C21.7272637,25.0051318 21.265953,24.9994914 21.1436779,24.9882107 Z M22.6999066,22.596698 C22.8221817,22.5572155 23.0278262,22.4218468 23.1556592,22.2864782 C23.3946515,22.0495831 23.3946515,22.0439427 23.3946515,21.6491175 C23.3946515,21.1414851 23.2056809,20.5210455 22.8666453,19.9231673 C22.7276964,19.6749914 22.6165372,19.4662981 22.6165372,19.4550174 C22.6165372,19.4437367 22.4609143,19.2237626 22.2719437,18.9699464 C21.8828865,18.4510333 20.9435914,17.4696106 20.3933534,17.0014607 C19.5763334,16.3189771 18.2257492,15.3657563 17.3698235,14.8694046 C17.2586643,14.8073606 17.0752516,14.7001938 16.9640925,14.6381498 C16.8473753,14.5704655 16.6417308,14.4520179 16.5027818,14.3730529 C16.3638328,14.2997282 16.1303985,14.1643596 15.9747757,14.0797542 C15.1188499,13.5946832 14.702003,13.402911 14.6519813,13.4536742 C14.568612,13.5382796 14.5463801,17.8869973 14.6241916,18.4961562 C14.6630973,18.7668935 14.7131189,18.9868675 14.7353507,18.9868675 C14.7575826,18.9868675 14.8020463,18.9361043 14.835394,18.8740603 C14.9020895,18.7499724 15.0021328,18.7217706 15.0021328,18.8289374 C15.0021328,18.9248235 14.7631405,19.2688855 14.6908871,19.2688855 C14.563054,19.2688855 14.4518948,19.0545518 14.3907573,18.682288 C14.3574095,18.4735947 14.2962719,18.1408135 14.2518083,17.9490412 C14.2017866,17.7629093 14.0683956,17.0240222 13.9461205,16.3076964 C13.8238454,15.597011 13.6626646,14.6550709 13.5904111,14.2207632 C13.5181576,13.7864554 13.4236723,13.2506212 13.3903246,13.0250068 L13.3236291,12.6189009 L12.8734343,12.353804 C12.2842906,12.009742 11.8007482,11.6995222 11.2783,11.3328988 C11.0504237,11.1693283 10.6502506,10.9042314 10.3890265,10.7463013 C10.1278024,10.5883712 9.58868034,10.2104671 9.18850726,9.90588766 C8.39371906,9.29672877 8.265886,9.24596553 7.5266774,9.19520229 C6.54847654,9.12751797 5.39242099,9.37005345 4.45312585,9.83820334 C3.86398215,10.1371424 3.55273643,10.3571165 3.13588947,10.7801435 C2.30219556,11.6205571 2.21882617,12.5568569 2.87466538,13.7977362 C3.38043969,14.7565974 3.94735155,15.4729231 5.31460956,16.8717324 C7.14873616,18.7612531 8.38816111,19.7539565 9.77765095,20.4590015 C10.73362,20.9440725 11.4728286,21.0794411 11.956371,20.8594671 C12.2287111,20.7410195 12.3009645,20.6676948 12.4121237,20.3856768 C12.512167,20.154422 12.6010943,20.3123521 11.6784731,19.0996747 C10.8892428,18.0674888 9.83323055,16.2569332 9.83323055,15.9467134 C9.83323055,15.8903098 9.81099871,15.8282658 9.77765095,15.7944237 C9.69428156,15.7098183 9.54421666,14.8186413 9.54977462,14.4181758 C9.55533258,13.9895084 9.67204973,13.4254724 9.74986116,13.4480338 C9.78320891,13.4593146 9.79432483,13.5213585 9.78320891,13.5890428 C9.772093,13.6567272 9.76097708,13.9951488 9.76097708,14.3335704 C9.75541912,14.8186413 9.77765095,14.9934925 9.84990443,15.1232208 C9.89992606,15.2191069 9.94438974,15.3206334 9.94438974,15.3601159 C9.94438974,15.4616424 10.3056571,16.1272049 10.589113,16.5445916 C11.545082,17.9490412 13.0957527,19.3591313 14.7853724,20.357475 C15.3689581,20.7071773 16.9085129,21.468626 17.0196721,21.468626 C17.0585778,21.468626 17.1141574,21.4911874 17.1475051,21.5193892 C17.2475484,21.6152753 18.6036905,22.1341885 19.2039501,22.3033993 C19.7875358,22.4669697 20.4600489,22.6248998 20.8102004,22.675663 C21.1436779,22.7207859 22.4831461,22.6700227 22.6999066,22.596698 Z M18.5814586,11.3949427 C20.448933,10.1484232 21.7050318,8.65372771 22.2830596,6.97290039 C22.4609143,6.4483469 22.4664723,5.84482836 22.2886176,5.50640675 C22.088531,5.12850262 21.8995604,4.90288822 21.5327351,4.62087021 C20.5712081,3.88198303 18.4869733,3.31794702 16.3026953,3.21642053 L15.5801606,3.18257837 L15.4856753,4.21476428 C15.4300957,4.78444065 15.3522842,5.78842476 15.3078206,6.43706618 C15.2633569,7.09134795 15.1744295,8.01636702 15.113292,8.49579763 C15.0465965,8.97522824 14.979901,9.53926426 14.9632271,9.74231722 L14.9298793,10.1202214 L15.1744295,10.2612304 C15.3078206,10.334555 15.6135083,10.5037658 15.8525006,10.6334941 C16.474992,10.9719157 17.2086427,11.3893024 17.5310043,11.586715 C17.6866272,11.6826011 17.853366,11.7615662 17.9145035,11.7615662 C17.9700831,11.7672065 18.2702129,11.5979957 18.5814586,11.3949427 Z M12.8512025,8.45631511 C12.8289707,8.1178935 12.8122968,7.18723408 12.8178547,6.38066258 C12.8234127,5.31463451 12.8067388,4.90288822 12.7622752,4.87468642 C12.6177682,4.77880029 9.84434647,4.95365146 8.86058765,5.1172219 C8.11582109,5.24130983 7.83236517,5.32027487 7.83236517,5.39923991 C7.83236517,5.46128387 8.56601581,6.17760961 9.14960154,6.67960166 C9.36636196,6.87137391 9.5664485,7.05186543 9.58312238,7.08570759 C9.63870197,7.17595336 10.1611502,7.54821712 10.4446061,7.70050685 C10.5835551,7.77383153 10.872569,7.96560378 11.0837714,8.12353386 C11.4561547,8.39991151 12.6677898,9.04855292 12.8234127,9.05419328 C12.8845503,9.05983364 12.8901082,8.94702644 12.8512025,8.45631511 Z" id="Shape" transform="translate(13.000000, 12.500000) scale(-1, 1) rotate(-180.000000) translate(-13.000000, -12.500000) "></path>
        </g>
    </g>
</svg>